<svg aria-hidden="true" style="position: absolute; width: 0; height: 0; overflow: hidden;" version="1.1" xmlns="http://www.w3.org/2000/svg" xmlns:xlink="http://www.w3.org/1999/xlink">
<defs>
<symbol id="icon-up-arrow" viewBox="0 0 32 32">
<path d="M31.68 21.932l-14.943-14.942c-0.213-0.214-0.459-0.321-0.737-0.321s-0.524 0.107-0.738 0.321l-14.942 14.942c-0.214 0.214-0.321 0.46-0.321 0.738s0.107 0.524 0.321 0.737l1.603 1.603c0.214 0.214 0.46 0.321 0.738 0.321s0.524-0.107 0.738-0.321l12.601-12.601 12.602 12.602c0.214 0.214 0.46 0.32 0.737 0.32s0.524-0.107 0.738-0.32l1.603-1.603c0.214-0.214 0.32-0.46 0.32-0.737s-0.106-0.524-0.32-0.738z"></path>
</symbol>
</defs>
</svg>
